<svg width="390" height="391" viewBox="0 0 390 391" fill="none" xmlns="http://www.w3.org/2000/svg">
<path d="M207.827 24.0367C197.927 24.0108 188.232 22.2012 179.286 17.5252C171.82 13.6233 164.711 9.01633 157.011 5.59821C133.861 -4.67532 102.105 0.241089 80.2922 11.8453C44.2918 30.9975 21.8502 70.5694 17.0228 111.089C13.309 142.262 19.8642 174.247 34.1594 202.079C41.3879 216.152 50.605 229.215 61.5297 240.659C78.2554 258.182 94.5792 272.397 116.931 282.28C155.37 299.28 199.389 303.819 240.259 293.576C289.542 281.225 333.268 247.296 356.408 202.026C370.837 173.799 377.138 140.952 374.358 109.134C371.625 77.8424 360.51 42.6275 335.458 22.0843C334.635 21.4108 333.799 20.7527 332.952 20.1118C309.401 2.31802 284.246 5.29065 257.505 13.9615C242.147 18.9421 224.689 24.0788 207.827 24.0367Z" fill="#D6D9F4"/>
<path d="M343.723 158.628H252.679V53.0511H343.723V158.628Z" fill="white"/>
<path d="M343.723 158.628H252.679V53.0511H343.723V158.628Z" stroke="#D6D9F4" stroke-width="1.33333" stroke-miterlimit="10"/>
<path d="M339.198 154.656H298.201V57.0221H339.198V154.656Z" fill="white"/>
<path d="M339.198 154.656H298.201V57.0221H339.198V154.656Z" stroke="#D6D9F4" stroke-width="1.33333" stroke-miterlimit="10"/>
<path d="M298.201 154.656H257.205V57.0221H298.201V154.656Z" fill="white"/>
<path d="M298.201 154.656H257.205V57.0221H298.201V154.656Z" stroke="#D6D9F4" stroke-width="1.33333" stroke-miterlimit="10"/>
<path d="M305.588 118.068H302.128V93.6103H305.588V118.068Z" fill="#1C1154"/>
<path d="M294.274 118.068H290.813V93.6103H294.274V118.068Z" fill="#1C1154"/>
<path d="M338.972 291.18H251.263V170.356H338.972V291.18Z" fill="white"/>
<path d="M338.972 291.18H251.263V170.356H338.972V291.18Z" stroke="#D6D9F4" stroke-width="1.33333" stroke-miterlimit="10"/>
<path d="M334.447 206.036H255.788V174.214H334.447V206.036Z" fill="white"/>
<path d="M334.447 206.036H255.788V174.214H334.447V206.036Z" stroke="#D6D9F4" stroke-width="1.33333" stroke-miterlimit="10"/>
<path d="M334.447 242.432H255.788V210.611H334.447V242.432Z" fill="white"/>
<path d="M334.447 242.432H255.788V210.611H334.447V242.432Z" stroke="#D6D9F4" stroke-width="1.33333" stroke-miterlimit="10"/>
<path d="M334.447 278.829H255.788V247.007H334.447V278.829Z" fill="white"/>
<path d="M334.447 278.829H255.788V247.007H334.447V278.829Z" stroke="#D6D9F4" stroke-width="1.33333" stroke-miterlimit="10"/>
<path d="M304.516 191.815H285.72V188.434H304.516V191.815Z" fill="#1C1154"/>
<path d="M304.516 228.211H285.72V224.831H304.516V228.211Z" fill="#1C1154"/>
<path d="M304.516 264.608H285.72V261.227H304.516V264.608Z" fill="#1C1154"/>
<path d="M259.542 307.493H254.768V291.18H262.077L259.542 307.493Z" fill="#1C1154"/>
<path d="M330.694 307.493H335.467V291.18H328.158L330.694 307.493Z" fill="#1C1154"/>
<path d="M157.923 168.642H29.7264V161.33H157.923V168.642Z" fill="white"/>
<path d="M157.923 168.642H29.7264V161.33H157.923V168.642Z" stroke="#D6D9F4" stroke-width="1.33333" stroke-miterlimit="10"/>
<path d="M154.181 208.552H33.4678V168.642H154.181V208.552Z" fill="white"/>
<path d="M154.181 208.552H33.4678V168.642H154.181V208.552Z" stroke="#D6D9F4" stroke-width="1.33333" stroke-miterlimit="10"/>
<path d="M39.6245 307.495H35.2987V208.799H42.2203L39.6245 307.495Z" fill="#1C1154"/>
<path d="M148.024 307.495H152.35V208.799H145.429L148.024 307.495Z" fill="#1C1154"/>
<path d="M113.033 191.502H74.6154V185.692H113.033V191.502Z" fill="#1C1154"/>
<path d="M84.083 160.904H65.3786C64.4392 160.904 63.6783 160.143 63.6783 159.204V130.218C63.6783 128.925 64.7273 127.875 66.021 127.875H83.441C84.7344 127.875 85.7838 128.925 85.7838 130.218V159.204C85.7838 160.143 85.023 160.904 84.083 160.904Z" fill="#F1435E"/>
<path d="M85.1442 123.617H64.3179C63.751 123.617 63.2913 124.077 63.2913 124.644V127.017C63.2913 127.583 63.751 128.043 64.3179 128.043H85.1442C85.7111 128.043 86.1709 127.583 86.1709 127.017V124.644C86.1709 124.077 85.7111 123.617 85.1442 123.617Z" fill="#1C1154"/>
<path d="M82.6613 150.175H63.6783V136.655H82.6613V150.175Z" fill="white"/>
<path d="M106.629 160.904H91.5503C90.6112 160.904 89.8495 160.143 89.8495 159.204V135.637C89.8495 134.342 90.8989 133.294 92.1924 133.294H105.986C107.28 133.294 108.329 134.342 108.329 135.637V159.204C108.329 160.143 107.568 160.904 106.629 160.904Z" fill="#4292BF"/>
<path d="M107.794 129.734H90.3843C89.9104 129.734 89.5265 130.118 89.5265 130.592V132.576C89.5265 133.05 89.9104 133.434 90.3843 133.434H107.794C108.269 133.434 108.653 133.05 108.653 132.576V130.592C108.653 130.118 108.269 129.734 107.794 129.734Z" fill="#1C1154"/>
<path d="M105.719 151.935H89.8495V140.633H105.719V151.935Z" fill="white"/>
<path d="M117.926 72.4478C117.926 87.9549 105.356 100.525 89.8495 100.525C74.3432 100.525 61.7731 87.9549 61.7731 72.4478C61.7731 56.9416 74.3432 44.3717 89.8495 44.3717C105.356 44.3717 117.926 56.9416 117.926 72.4478Z" fill="white"/>
<path d="M117.926 72.4479C117.926 87.9549 105.356 100.525 89.8495 100.525C74.3432 100.525 61.7731 87.9549 61.7731 72.4479C61.7731 56.9416 74.3432 44.3717 89.8495 44.3717C105.356 44.3717 117.926 56.9416 117.926 72.4479Z" stroke="#1C1154" stroke-width="1.33333" stroke-miterlimit="10"/>
<path d="M115.296 72.4479C115.296 86.502 103.904 97.8942 89.8495 97.8942C75.7962 97.8942 64.4035 86.502 64.4035 72.4479C64.4035 58.3946 75.7962 47.0016 89.8495 47.0016C103.904 47.0016 115.296 58.3946 115.296 72.4479Z" fill="white"/>
<path d="M115.296 72.4479C115.296 86.502 103.904 97.8942 89.8495 97.8942C75.7962 97.8942 64.4035 86.502 64.4035 72.4479C64.4035 58.3946 75.7962 47.0016 89.8495 47.0016C103.904 47.0016 115.296 58.3946 115.296 72.4479Z" stroke="#1C1154" stroke-width="1.33333" stroke-miterlimit="10"/>
<path d="M81.5955 55.5997L89.8495 72.4479L99.8645 66.2028" fill="white"/>
<path d="M81.5955 55.5997L89.8495 72.4479L99.8645 66.2028" stroke="#1C1154" stroke-width="2.66667" stroke-miterlimit="10" stroke-linecap="round" stroke-linejoin="round"/>
<path d="M90.8575 251.89C89.3482 249.292 85.3913 248.154 83.1939 250.204C86.8435 243.256 90.6065 235.633 89.191 227.915C88.5404 224.363 86.6026 220.858 83.3831 219.223C80.1628 217.588 75.6241 218.432 73.8732 221.59C72.6658 218.357 71.4436 215.094 69.5589 212.203C67.6735 209.312 65.0435 206.783 61.7805 205.658C58.5177 204.534 54.5839 205.031 52.1056 207.433C49.2968 210.157 48.9251 214.676 50.166 218.385C51.4074 222.095 53.9739 225.188 56.4864 228.186C53.8499 226.022 49.72 226.181 46.9921 228.231C44.2646 230.28 42.9532 233.901 43.2914 237.296C43.6298 240.69 45.4675 243.826 47.9599 246.156C50.4515 248.485 53.5624 250.067 56.7809 251.199C54.3109 250.37 51.3893 251.105 49.6051 253.004C47.8203 254.901 47.2676 257.862 48.2473 260.276C49.7881 264.075 54.1688 265.646 57.7709 267.601C64.4753 271.239 69.6606 277.582 71.8932 284.875L75.725 284.998C77.637 278.68 80.8229 272.75 85.0371 267.668C86.9537 265.355 89.1035 263.183 90.486 260.517C91.8686 257.85 92.3667 254.487 90.8575 251.89Z" fill="#4292BF"/>
<path d="M77.7457 264.929C77.1225 260.357 76.2404 255.821 75.1088 251.347C73.9726 246.853 72.5837 242.423 70.9525 238.085C69.3345 233.781 67.479 229.567 65.3939 225.469C63.3014 221.356 60.9768 217.361 58.4298 213.514C58.1155 213.04 57.7978 212.567 57.4771 212.097C57.2751 211.8 56.7888 212.081 56.9928 212.38C59.5811 216.176 61.954 220.117 64.0965 224.181C66.2369 228.242 68.1498 232.422 69.8225 236.697C71.496 240.976 72.9325 245.347 74.1227 249.784C75.3067 254.203 76.2474 258.685 76.9356 263.207C77.6284 267.764 78.0609 272.361 78.229 276.967C78.2493 277.537 78.2657 278.105 78.279 278.675C78.2869 279.035 78.8476 279.036 78.839 278.675C78.7349 274.076 78.3674 269.487 77.7457 264.929Z" fill="#C7ECEA"/>
<path d="M120.815 208.492C120.536 202.478 115.214 197.123 109.202 196.805C104.406 196.552 99.8169 199.17 96.5677 202.706C93.3185 206.243 91.1844 210.637 89.0964 214.962C86.8239 211.471 82.0045 210.127 78.028 211.365C74.0508 212.603 70.997 216.054 69.5941 219.975C68.1901 223.898 68.2866 228.23 69.1612 232.303C70.0352 236.375 71.6524 240.244 73.2617 244.085C71.1722 241.9 67.2829 242.208 65.103 244.304C62.9235 246.398 62.3297 249.768 62.9868 252.718C63.6435 255.67 65.3792 258.267 67.3128 260.592C69.2461 262.916 71.4154 265.05 73.1702 267.511C76.5125 272.2 78.2305 278.025 77.967 283.776L88.3872 283.626C88.9729 280.383 91.0812 277.589 93.5796 275.442C96.0789 273.294 98.9856 271.687 101.759 269.909C104.534 268.13 107.245 266.115 109.102 263.393C110.957 260.669 111.847 257.112 110.728 254.013C110.032 252.087 108.581 250.446 106.754 249.521C104.928 248.596 102.987 248.25 101.023 248.83C106.647 245.366 111.094 240.027 113.484 233.871C114.368 231.592 114.983 229.125 114.601 226.711C114.218 224.298 112.661 221.955 110.336 221.206C116.292 220.333 121.094 214.507 120.815 208.492Z" fill="#262977"/>
<path d="M110.25 207.073C106.561 210.975 103.187 215.175 100.162 219.612C97.1276 224.064 94.4437 228.753 92.1329 233.619C89.837 238.453 87.9054 243.461 86.3641 248.586C84.8126 253.746 83.6561 259.024 82.9171 264.361C82.1804 269.682 81.8528 275.058 81.9661 280.428C81.9802 281.084 82.0013 281.739 82.0271 282.394C82.042 282.754 82.6027 282.755 82.5878 282.394C82.3728 277.072 82.5831 271.736 83.2095 266.446C83.8398 261.122 84.894 255.846 86.3399 250.684C87.7803 245.537 89.6102 240.499 91.8154 235.631C94.0207 230.76 96.5966 226.058 99.5213 221.581C102.443 217.108 105.714 212.865 109.308 208.912C109.749 208.427 110.196 207.946 110.646 207.47C110.894 207.208 110.498 206.81 110.25 207.073Z" fill="#C7ECEA"/>
<path d="M94.8488 275.812L93.5202 295.925L93.2676 299.688L93.033 303.309L92.7859 307.049L92.545 310.693L92.2979 314.403L90.2686 345.091H67.9396L65.7366 311.808L65.5233 308.517L65.2653 304.666L65.0468 301.369L64.7945 297.557L64.5758 294.244L63.3591 275.812H94.8488Z" fill="#BB2831"/>
<path d="M93.5202 295.925L93.2676 299.688C89.4843 301.302 85.5031 302.311 81.3155 301.667C76.0793 300.859 70.2377 296.946 64.7945 297.557L64.5758 294.244C68.5674 293.935 72.6822 295.461 76.5391 296.851C80.3294 298.213 83.9563 298.981 87.9477 298.006C89.8816 297.529 91.7263 296.79 93.5202 295.925Z" fill="#F1435E"/>
<path d="M93.033 303.309L92.7859 307.049C89.1473 308.54 85.3241 309.437 81.3155 308.821C76.231 308.04 70.574 304.33 65.2653 304.666L65.0469 301.369C68.8924 301.213 72.834 302.676 76.5391 304.004C80.3294 305.367 83.9563 306.141 87.9477 305.159C89.7079 304.733 91.39 304.077 93.033 303.309Z" fill="#F1435E"/>
<path d="M92.545 310.693L92.2979 314.403C88.8 315.772 85.1449 316.568 81.3155 315.979C76.3764 315.217 70.9047 311.702 65.7366 311.808L65.5233 308.517C69.218 308.495 72.9903 309.891 76.539 311.164C80.3294 312.526 83.9563 313.294 87.9476 312.319C89.5343 311.926 91.0592 311.36 92.545 310.693Z" fill="#F1435E"/>
<path d="M153.333 52.4381C158.197 53.8152 162.378 58.1686 163.041 63.4252C163.849 69.8368 159.641 76.2859 161.176 82.549C162.512 87.9948 167.835 91.5928 169.137 97.048C170.191 101.46 168.256 106.242 165.079 109.325C161.902 112.407 157.671 114.017 153.437 114.926C148.761 115.93 143.857 116.162 139.25 114.851C132.063 112.807 125.986 106.856 123.531 99.4566C120.999 91.8266 122.459 83.7204 124.232 76.1068C125.853 69.1455 128.566 56.861 136.564 55.4065C142.447 54.3368 147.126 50.6817 153.333 52.4381Z" fill="#100F0D"/>
<path d="M163.088 175.933C165.461 229.412 159.414 332.069 159.414 332.069C159.414 332.069 152.679 333.419 147.594 331.761L135.461 175.933H163.088Z" fill="#F7998B"/>
<path d="M113.032 175.933C112.144 233.158 120.986 332.069 120.986 332.069C120.986 332.069 127.129 333.418 132.807 331.761L140.659 175.933H113.032Z" fill="#F7998B"/>
<path d="M177.097 336.758C167.96 335.182 163.417 335.335 159.414 332.069C159.414 332.069 154.788 333.08 147.594 331.761C147.594 331.761 143.947 338.581 145.986 345.021H152.949L154.891 341.515L158.892 345.089H184.393C184.393 345.089 186.233 338.335 177.097 336.758Z" fill="#1C1154"/>
<path d="M103.304 336.758C112.441 335.182 116.984 335.335 120.986 332.069C120.986 332.069 125.613 333.08 132.807 331.761C132.807 331.761 136.454 338.581 134.415 345.021H127.451L125.51 341.515L121.509 345.089H96.007C96.007 345.089 94.1669 338.335 103.304 336.758Z" fill="#1C1154"/>
<path d="M202.131 149.204L200.835 139.035C203.747 137.07 203.63 132.452 205.781 132.406C207.924 132.361 206.162 138.864 206.162 138.864C206.162 138.864 219.628 135.177 220.009 137.119C220.39 139.063 214.78 140.949 214.78 140.949C214.78 140.949 217.702 146.159 214.844 148.726C211.47 151.758 207.009 148.918 202.131 149.204Z" fill="#F7998B"/>
<path d="M223.524 150.972L223.73 150.753L219.92 147.172L219.712 147.392L223.524 150.972Z" fill="#C7ECEA"/>
<path d="M208.22 138.147L209.976 136.278L208.327 134.729L206.572 136.598L208.22 138.147Z" fill="#4292BF"/>
<path d="M206.249 137.088L208.796 134.376L208.283 133.894L205.736 136.605L206.249 137.088Z" fill="#4292BF"/>
<path d="M216.996 147.53L219.888 144.452L210.214 135.364L207.323 138.442L216.996 147.53Z" fill="#C7ECEA"/>
<path d="M219.685 148.339L220.863 147.085L219.324 145.052L217.559 146.93L219.685 148.339Z" fill="#4292BF"/>
<path d="M155.168 101.907C162.524 104.985 168.268 140.665 168.268 140.665L202.149 137.176C202.149 137.176 204.929 145.591 203.401 150.241C203.401 150.241 167.479 156.484 161.761 153.854C156.589 151.474 151.246 126.179 151.246 126.179L155.168 101.907Z" fill="white"/>
<path d="M113.03 175.933C106.259 207.451 106.259 255.634 106.259 255.634C106.259 255.634 136.45 261.542 172.246 253.293L163.088 175.933H113.03Z" fill="#4292BF"/>
<path d="M113.03 175.933C113.665 176.588 140.542 182.819 163.089 175.933L155.594 137.804L155.177 135.676C155.177 135.676 159.483 133.904 160.191 125.885C160.643 120.792 159.641 113.181 155.168 101.907L152.207 100.573L147.566 98.82L137.461 98.3305L127.098 101.2V101.272C127.098 101.272 127.407 109.338 124.939 124.868C124.8 125.74 124.655 126.634 124.497 127.554C124.001 130.46 123.382 133.639 122.69 136.931C118.936 154.749 113.03 175.933 113.03 175.933Z" fill="#4292BF"/>
<path d="M149.266 99.4621C144.726 141.122 156.926 246.394 156.926 246.394C156.926 246.394 168.919 245.688 174.3 243.555L156.92 137.857C156.92 137.857 167.899 129.63 155.168 101.907L149.266 99.4621Z" fill="white"/>
<path d="M135.585 98.8497C135.585 98.8497 142.452 172.838 138.06 247.553C138.06 247.553 120.451 250.317 104.817 246.394C104.817 246.394 108.958 177.946 120.588 135.633L127.098 101.2L135.585 98.8497Z" fill="white"/>
<path d="M132.966 188.221C132.966 188.221 122.727 187.723 116.256 188.221C116.256 188.221 111.919 207.987 123.296 208.84C134.672 209.694 132.966 188.221 132.966 188.221Z" fill="#C7ECEA"/>
<path d="M236.713 128.319C226.985 131.21 212.211 168.95 211.127 169.426C210.285 169.797 169.994 175.933 169.994 175.933V183.816C169.994 183.816 215.574 183.622 219.513 180.69C226.375 175.583 236.713 155.302 236.713 155.302V128.319Z" fill="#F9ACA4"/>
<path d="M174.807 179.596C174.807 179.596 173.08 183.635 169.231 184.045C165.447 184.447 163.419 182.273 163.419 182.273C163.419 182.273 160.8 187.507 159.505 187.53C158.208 187.554 160.544 181.352 160.544 181.352C160.544 181.352 155.438 185.922 154.629 185.141C153.819 184.36 158.912 179.082 158.912 179.082C158.912 179.082 151.7 181.215 151.262 179.749C150.823 178.283 159.725 175.62 159.725 175.62C159.725 175.62 153.793 172.678 154.384 171.412C155.236 169.589 167.126 173.632 167.153 173.484C167.18 173.336 165.782 167.469 168.222 167.334C170.578 167.204 169.424 170.26 171.173 172.469C171.985 173.495 175.611 176.81 174.807 179.596Z" fill="#F9ACA4"/>
<path d="M165.616 172.34C169.06 177.983 179.935 182.226 184.554 178.112C184.554 178.112 185.298 177.611 185.462 176.395C185.462 176.395 186.849 175.94 187.04 174.319C187.058 174.187 188.46 172.964 188.26 171.655C188.26 171.655 189.21 170.283 188.274 169.45C187.337 168.617 181.584 169.988 179.557 169.371C176.159 168.335 176.045 167 176.31 166.756C176.575 166.512 181.029 168.42 181.72 166.879C182.412 165.34 177.985 163.387 175.942 163.072C171.832 162.438 168.24 164.366 168.24 164.366L165.616 172.34Z" fill="#F7998B"/>
<path d="M127.098 101.2C119.868 103.155 118.182 141.732 120.588 148.339C123.734 156.974 165.383 174.514 165.383 174.514C165.383 174.514 169.271 169.026 171.501 160.792L136.336 142.437L131.762 111.789L127.098 101.2Z" fill="white"/>
<path d="M156.425 106.226C156.305 105.888 156.842 105.742 156.962 106.078C158.511 110.434 160.071 114.82 160.866 119.387C161.576 123.462 161.65 127.687 160.592 131.709C160.016 133.905 159.094 136.01 157.801 137.879C157.598 138.172 157.116 137.893 157.32 137.598C159.613 134.285 160.66 130.294 160.82 126.3C160.994 121.941 160.106 117.63 158.863 113.472C158.133 111.03 157.279 108.627 156.425 106.226Z" fill="#C7ECEA"/>
<path d="M134.387 141.301C134.665 141.441 134.944 141.581 135.223 141.721C134.976 135.814 134.731 129.906 134.485 123.999C134.414 122.29 134.343 120.582 134.272 118.873C134.257 118.515 134.814 118.515 134.829 118.873C135.08 124.922 135.332 130.971 135.584 137.021C135.653 138.683 135.722 140.345 135.791 142.008C136.398 142.313 137.004 142.618 137.611 142.923C137.931 143.084 137.649 143.564 137.329 143.403C136.255 142.862 135.18 142.322 134.105 141.782C133.785 141.62 134.066 141.14 134.387 141.301Z" fill="#C7ECEA"/>
<path d="M158.325 79.3178C158.315 79.3983 158.311 79.4702 158.302 79.5508C157.882 83.4944 156.471 85.996 154.497 87.8619C153.109 89.1905 151.848 90.0554 150.809 90.8867C150.607 91.0423 150.421 91.2049 150.234 91.3668C148.306 93.0137 147.219 94.81 147.502 99.9665C145.992 104.456 139.318 105.437 136.879 100.551C136.608 94.3157 135.129 89.0005 133.893 85.5886C133.583 84.694 133.28 83.9363 133.023 83.3286C132.533 82.1697 132.193 81.5293 132.193 81.5293C132.193 81.5293 131.728 67.8098 133.497 64.0664C137.817 55.0179 154.845 57.0902 156.542 64.014C158.201 70.7517 158.673 75.6525 158.325 79.3178Z" fill="#F7998B"/>
<path d="M158.639 70.3623C154.686 69.0259 151.361 65.9378 149.734 62.0943C149.096 65.0127 147.625 67.7559 145.391 69.7391C143.156 71.7222 140.283 72.9742 137.309 73.2612C136.969 76.0678 134.742 78.5945 131.987 79.2341C130.729 75.0105 129.922 70.5445 131.134 66.3069C132.347 62.07 135.444 58.2304 139.639 56.8791C142.085 56.0909 144.723 56.1706 147.278 56.4482C149.597 56.6992 151.987 57.1419 153.887 58.4955C155.717 59.7999 156.915 61.844 157.6 63.9843C158.285 66.1255 158.425 68.125 158.639 70.3623Z" fill="#100F0D"/>
<path d="M152.349 72.4291C153.651 71.4445 155.392 71.4289 156.696 72.4705C156.941 72.6653 156.998 73.0742 156.829 73.3472C156.657 73.6263 156.311 73.685 156.065 73.4895C155.53 73.0625 154.863 72.8866 154.221 72.9593C153.896 72.996 153.577 73.0961 153.284 73.2572C153.024 73.3996 152.775 73.6388 152.471 73.4801C152.399 73.4418 152.335 73.3839 152.284 73.3143C152.109 73.075 152.102 72.616 152.349 72.4291Z" fill="#100F0D"/>
<path d="M148.195 72.5942C146.623 71.723 144.632 71.8552 143.229 73.0039C142.966 73.219 142.936 73.6311 143.152 73.8891C143.373 74.1527 143.773 74.1824 144.037 73.9666C144.613 73.4958 145.361 73.2722 146.1 73.2917C146.474 73.3019 146.846 73.373 147.197 73.5044C147.506 73.6201 147.813 73.8344 148.145 73.6506C148.225 73.6068 148.292 73.5443 148.345 73.47C148.525 73.2166 148.494 72.7592 148.195 72.5942Z" fill="#100F0D"/>
<path d="M144.727 76.8302C144.754 77.4402 145.27 77.9125 145.879 77.8859C146.489 77.8593 146.961 77.3439 146.935 76.734C146.908 76.1248 146.393 75.6517 145.783 75.6783C145.173 75.7049 144.701 76.2202 144.727 76.8302Z" fill="#100F0D"/>
<path d="M145.818 76.4806C145.827 76.7035 146.017 76.8763 146.24 76.8669C146.462 76.8568 146.636 76.6683 146.626 76.4454C146.616 76.2218 146.427 76.049 146.204 76.0584C145.981 76.0685 145.808 76.257 145.818 76.4806Z" fill="white"/>
<path d="M153.266 76.4587C153.292 77.0679 153.808 77.541 154.418 77.5144C155.027 77.4878 155.5 76.9725 155.473 76.3625C155.447 75.7526 154.931 75.2802 154.321 75.3068C153.712 75.3334 153.238 75.8488 153.266 76.4587Z" fill="#100F0D"/>
<path d="M154.356 76.1084C154.366 76.332 154.555 76.5049 154.778 76.4955C155.001 76.4853 155.175 76.2968 155.164 76.0732C155.155 75.8503 154.966 75.6767 154.743 75.6869C154.519 75.6963 154.347 75.8855 154.356 76.1084Z" fill="white"/>
<path d="M147.953 81.7427C148.261 81.1946 149.197 81.6896 150.276 81.706C151.355 81.7224 152.306 81.2564 152.597 81.8139C152.965 82.5193 152.006 84.2452 150.238 84.2186C148.469 84.1912 147.564 82.4364 147.953 81.7427Z" fill="#A1312E"/>
<path d="M148.087 82.9025C148.425 82.8642 148.786 82.8423 149.167 82.8485C150.423 82.8681 151.495 83.1425 151.992 83.521C151.573 83.9238 150.982 84.2295 150.238 84.2186C149.174 84.2022 148.431 83.5609 148.087 82.9025Z" fill="#DA554F"/>
<path d="M150.267 82.3128C149.303 82.2979 148.488 82.0571 148.196 81.5315C148.625 81.3665 149.404 81.6926 150.276 81.7059C151.148 81.7192 151.936 81.4174 152.36 81.5957C152.053 82.111 151.231 82.3276 150.267 82.3128Z" fill="white"/>
<path d="M152.024 79.5117C152.086 79.5086 152.142 79.4656 152.158 79.4014C152.39 78.449 152.057 78.1424 151.735 78.054C151.41 77.9657 151.028 78.065 150.603 78.3536C150.537 78.3981 150.52 78.4881 150.565 78.5545C150.611 78.6194 150.701 78.6358 150.766 78.5928C151.117 78.3543 151.418 78.266 151.658 78.3324C151.946 78.4114 152.02 78.7485 151.878 79.3342C151.859 79.4108 151.906 79.489 151.983 79.5078C151.997 79.5117 152.011 79.5125 152.024 79.5117Z" fill="#DA554F"/>
<path d="M151.091 77.9367C148.734 77.8765 144.562 80.6776 141.314 80.8246C141.314 80.8246 141.765 84.9051 140.936 88.1512C140.936 88.1512 146.558 90.6168 151.31 90.6168C156.359 88.6415 157.727 84.719 158.361 80.0716C156.602 79.8331 153.876 78.0079 151.091 77.9367Z" fill="#4292BF"/>
<path d="M142.117 80.6738C139.463 79.7338 136.81 78.7946 134.157 77.8554C133.48 77.6154 133.189 78.6914 133.861 78.9291C136.515 79.8691 139.167 80.8083 141.82 81.7482C142.498 81.9875 142.789 80.9115 142.117 80.6738Z" fill="#4292BF"/>
<path d="M141.618 87.3481C138.922 85.0959 136.228 82.843 133.532 80.59C132.986 80.1334 132.193 80.9177 132.745 81.3783L140.83 88.1356C141.376 88.5922 142.168 87.8087 141.618 87.3481Z" fill="#4292BF"/>
<path d="M128.517 82.0477C130.058 83.6922 132.365 84.0339 133.67 82.8109C134.976 81.5886 134.785 79.2637 133.244 77.6192C131.704 75.9746 129.397 75.6329 128.091 76.856C126.786 78.079 126.977 80.4031 128.517 82.0477Z" fill="#F7998B"/>
<path d="M129.081 77.6474C129.678 77.2885 130.499 77.2587 131.275 77.5692C131.662 77.7232 131.948 77.9219 132.149 78.1752C132.416 78.5107 132.508 78.9447 132.391 79.3076C132.286 79.6345 132.043 79.8558 131.828 80.0513C131.672 80.1928 131.525 80.3257 131.446 80.4806C131.325 80.7175 131.377 81.0374 131.567 81.225C131.755 81.4112 132.076 81.4573 132.311 81.3322C132.45 81.2594 132.621 81.3118 132.695 81.4502C132.767 81.5871 132.715 81.7591 132.577 81.8327C132.426 81.9124 132.26 81.9562 132.091 81.9656C131.755 81.9844 131.411 81.8663 131.169 81.627C130.805 81.268 130.71 80.6776 130.943 80.2225C131.069 79.977 131.27 79.794 131.448 79.6329C131.626 79.471 131.794 79.3177 131.852 79.1348C131.911 78.951 131.854 78.7133 131.706 78.5271C131.647 78.4521 131.567 78.3856 131.48 78.3222C131.199 78.3355 130.853 78.4411 130.686 78.6444C130.498 78.8751 130.421 79.1965 130.485 79.4859C130.519 79.6384 130.423 79.7893 130.27 79.8229C130.255 79.8268 130.24 79.8284 130.224 79.8292C130.088 79.837 129.963 79.7455 129.933 79.6079C129.83 79.1473 129.948 78.653 130.248 78.2863C130.359 78.1502 130.503 78.054 130.655 77.9743C130.18 77.8742 129.721 77.9242 129.373 78.133C128.944 78.3903 128.643 79.012 128.897 79.4906C128.971 79.629 128.918 79.8002 128.781 79.8737C128.642 79.9465 128.472 79.8941 128.397 79.7564C128.028 79.0589 128.341 78.0931 129.081 77.6474Z" fill="#BE4A45"/>
<path d="M224.888 345.091H228.471V261.373C228.471 257.935 231.355 255.139 234.899 255.139H270.88C274.425 255.139 277.309 257.935 277.309 261.373V345.091H280.892V261.373C280.892 255.959 276.401 251.556 270.88 251.556H234.899C229.379 251.556 224.888 255.959 224.888 261.373V345.091Z" fill="#262977"/>
<path d="M216.867 316.086H280.892V313.8H216.867V316.086Z" fill="#262977"/>
<path d="M216.999 345.091H220.582V261.373C220.582 257.935 223.465 255.139 227.01 255.139H262.991C266.535 255.139 269.419 257.935 269.419 261.373V345.091H273.002V261.373C273.002 255.959 268.511 251.556 262.991 251.556H227.01C221.49 251.556 216.999 255.959 216.999 261.373V345.091Z" fill="#4292BF"/>
<path d="M218.694 234.152H276.622C280.36 234.152 283.389 237.182 283.389 240.918V245.513C283.389 249.25 280.36 252.28 276.622 252.28H218.694C214.957 252.28 211.927 249.25 211.927 245.513V240.918C211.927 237.182 214.957 234.152 218.694 234.152Z" fill="#4292BF"/>
<path d="M191.245 342.632L191.208 342.881C191.171 343.253 191.126 343.609 191.059 343.994C190.984 344.312 190.924 344.661 190.856 345.017L152.667 345.089C152.667 345.089 152.606 344.696 152.604 344.075C152.619 343.757 152.641 343.387 152.708 342.955C152.723 342.879 152.731 342.788 152.761 342.705C153.173 340.555 154.734 337.584 159.948 336.62C160.197 336.559 160.462 336.528 160.75 336.49L160.773 336.489C161.182 336.428 161.59 336.39 162.03 336.352C162.173 336.344 162.317 336.327 162.461 336.32C172.905 335.483 177.524 331.969 177.524 331.969C177.524 331.969 183.582 333.168 189.257 331.947C189.257 331.947 189.925 333.051 190.519 334.972C190.61 335.297 190.709 335.646 190.802 336.016C190.824 336.084 190.839 336.16 190.863 336.243C190.901 336.387 190.932 336.554 190.962 336.72C190.969 336.766 190.985 336.826 190.985 336.872C190.985 336.909 191.007 336.924 191.007 336.955C191.161 337.741 191.276 338.604 191.323 339.535C191.369 340.504 191.364 341.541 191.245 342.632Z" fill="#BB2831"/>
<path d="M173.733 332.286C173.863 332.166 174.034 332.077 174.216 332.086C174.408 332.094 174.549 332.166 174.699 332.284C174.804 332.367 174.909 332.449 175.016 332.532C175.52 332.919 176.032 333.294 176.554 333.658C176.702 333.762 176.819 333.886 176.869 334.065C176.913 334.229 176.894 334.446 176.801 334.592C176.615 334.882 176.181 335.056 175.867 334.839C175.141 334.332 174.431 333.801 173.735 333.252C173.607 333.15 173.535 332.924 173.534 332.769C173.534 332.602 173.608 332.402 173.733 332.286Z" fill="white"/>
<path d="M171.032 333.508C171.288 333.272 171.748 333.217 171.998 333.505C172.498 334.085 173.057 334.613 173.663 335.083C173.76 335.156 173.857 335.229 173.956 335.298C174.104 335.403 174.22 335.526 174.27 335.705C174.316 335.868 174.295 336.086 174.202 336.231C174.017 336.521 173.581 336.698 173.269 336.479C172.447 335.9 171.692 335.234 171.034 334.473C170.914 334.333 170.834 334.179 170.833 333.99C170.833 333.823 170.907 333.623 171.032 333.508Z" fill="white"/>
<path d="M168.549 334.394C168.679 334.274 168.85 334.186 169.031 334.193C169.199 334.201 169.406 334.254 169.514 334.392L171.066 336.38C171.183 336.529 171.267 336.664 171.267 336.862C171.267 337.03 171.193 337.23 171.068 337.345C170.938 337.464 170.768 337.554 170.586 337.546C170.418 337.539 170.212 337.486 170.103 337.347L168.552 335.359C168.434 335.21 168.351 335.075 168.35 334.877C168.35 334.709 168.423 334.509 168.549 334.394Z" fill="white"/>
<path d="M165.794 335.043C166.121 334.869 166.535 334.957 166.728 335.285C167.074 335.875 167.421 336.464 167.766 337.054C167.948 337.363 167.849 337.816 167.524 337.988C167.197 338.162 166.783 338.074 166.589 337.745C166.243 337.157 165.897 336.567 165.551 335.977C165.37 335.669 165.468 335.216 165.794 335.043Z" fill="white"/>
<path d="M191.213 342.886C191.169 343.247 191.126 343.615 191.054 343.99C190.988 344.32 190.93 344.665 190.849 345.019L152.669 345.091C152.669 345.091 152.602 344.702 152.601 344.077C152.615 343.753 152.636 343.379 152.709 342.96L191.213 342.886Z" fill="white"/>
<path d="M237.047 319.457L237.171 319.678C237.37 319.994 237.553 320.302 237.737 320.648C237.873 320.945 238.04 321.257 238.205 321.579L208.111 345.091C208.111 345.091 207.822 344.818 207.44 344.33C207.256 344.069 207.045 343.763 206.834 343.381C206.799 343.312 206.748 343.236 206.722 343.152C205.726 341.202 205.134 337.899 208.656 333.936C208.816 333.734 209.006 333.547 209.21 333.34L209.227 333.326C209.512 333.028 209.811 332.745 210.134 332.445C210.242 332.35 210.346 332.25 210.455 332.155C218.184 325.08 219.67 319.471 219.67 319.471C219.67 319.471 225.188 316.697 228.916 312.247C228.916 312.247 230.122 312.707 231.77 313.859C232.042 314.06 232.334 314.274 232.634 314.51C232.694 314.55 232.752 314.6 232.822 314.652C232.94 314.742 233.066 314.854 233.193 314.967C233.227 314.998 233.276 315.037 233.303 315.073C233.327 315.102 233.354 315.1 233.373 315.124C233.978 315.651 234.598 316.261 235.207 316.967C235.839 317.702 236.471 318.524 237.047 319.457Z" fill="#BB2831"/>
<path d="M216.874 322.049C216.903 321.875 216.982 321.699 217.131 321.594C217.288 321.483 217.443 321.453 217.634 321.455C217.768 321.455 217.902 321.455 218.036 321.455C218.671 321.451 219.307 321.433 219.942 321.399C220.123 321.39 220.292 321.416 220.44 321.528C220.576 321.628 220.695 321.813 220.71 321.985C220.741 322.328 220.506 322.732 220.125 322.752C219.24 322.8 218.354 322.816 217.468 322.809C217.305 322.807 217.108 322.674 217.013 322.552C216.91 322.42 216.845 322.216 216.874 322.049Z" fill="white"/>
<path d="M215.492 324.671C215.549 324.329 215.878 324.002 216.253 324.077C217.003 324.228 217.769 324.3 218.535 324.3C218.657 324.298 218.778 324.296 218.898 324.29C219.08 324.281 219.247 324.306 219.397 324.418C219.533 324.519 219.651 324.703 219.667 324.875C219.698 325.216 219.464 325.624 219.082 325.642C218.077 325.691 217.072 325.63 216.087 325.432C215.906 325.396 215.748 325.323 215.632 325.175C215.529 325.043 215.464 324.84 215.492 324.671Z" fill="white"/>
<path d="M214.076 326.896C214.105 326.722 214.186 326.547 214.334 326.442C214.471 326.344 214.666 326.258 214.837 326.302L217.283 326.918C217.466 326.964 217.616 327.019 217.738 327.174C217.841 327.306 217.905 327.509 217.878 327.678C217.849 327.852 217.768 328.027 217.62 328.133C217.484 328.23 217.287 328.315 217.117 328.273L214.671 327.657C214.488 327.611 214.338 327.556 214.216 327.399C214.113 327.267 214.048 327.065 214.076 326.896Z" fill="white"/>
<path d="M212.3 329.1C212.452 328.762 212.832 328.577 213.188 328.719C213.822 328.971 214.458 329.223 215.093 329.476C215.425 329.608 215.626 330.027 215.475 330.362C215.324 330.7 214.943 330.886 214.589 330.745C213.954 330.492 213.319 330.239 212.683 329.987C212.351 329.855 212.15 329.436 212.3 329.1Z" fill="white"/>
<path d="M237.178 319.679C237.366 319.99 237.557 320.307 237.73 320.647C237.881 320.949 238.048 321.257 238.201 321.585L208.114 345.091C208.114 345.091 207.823 344.825 207.438 344.334C207.25 344.069 207.037 343.76 206.837 343.385L237.178 319.679Z" fill="white"/>
<path d="M172.338 246.027C171.747 254.331 198.836 291.704 212.291 309.71C216.716 315.64 219.673 319.474 219.673 319.474C219.673 319.474 227.019 318.471 228.918 312.245C228.918 312.245 227.216 308.42 224.618 302.687C217.452 286.893 203.449 256.651 199.383 252.172C199.383 252.172 260.737 247.908 262.922 206.153L224.457 205.366C206.97 212.908 173.233 233.369 172.338 246.027Z" fill="#F9ACA4"/>
<path d="M171.272 245.761C169.785 257.286 196.071 292.901 209.526 310.907C215.435 309.307 223.223 304.295 226.832 301.187C219.666 285.393 204.882 257.079 200.814 252.6C200.814 252.6 260.737 247.908 262.922 206.153L224.457 205.366C206.97 212.908 173.236 230.551 171.272 245.761Z" fill="#1C1154"/>
<path d="M176.486 320.146V320.156C177.032 327.25 177.417 331.846 177.417 331.846C182.138 334.434 189.251 331.944 189.251 331.944C189.251 331.944 189.806 327.304 190.631 320.245C192.915 300.555 197.206 262.008 196.963 252.458C196.963 252.458 230.782 248.733 253.714 241.826C274.479 235.582 277.596 218.991 276.673 205.894L236.621 206.638C236.621 206.638 179.585 230.897 174.3 243.555C171.558 250.121 174.783 297.679 176.486 320.146Z" fill="#F9ACA4"/>
<path d="M173.537 320.468C173.537 320.468 175.959 320.841 179.507 321.042C179.691 321.053 179.875 321.064 180.064 321.07C180.426 321.092 180.799 321.108 181.178 321.12C181.362 321.126 181.546 321.131 181.73 321.142C185.272 321.242 189.516 321.12 193.515 320.379C195.799 300.69 197.988 262.571 197.748 253.025C197.748 253.025 230.782 248.731 253.713 241.824C274.477 235.58 277.595 218.988 276.676 205.894L236.618 206.64C236.618 206.64 179.585 230.896 174.3 243.556C171.559 250.123 171.832 298.006 173.537 320.468Z" fill="#262977"/>
<path d="M181.178 321.12C181.362 321.126 181.546 321.131 181.73 321.142C181.752 320.618 181.768 320.09 181.791 319.566C182.147 310.014 182.509 300.456 182.866 290.904C183.223 281.386 183.585 271.862 183.941 262.342C184.03 259.925 184.119 257.514 184.213 255.102C184.286 253.136 184.331 251.148 184.815 249.237C185.311 247.276 186.33 245.583 188.018 244.436C189.733 243.266 191.761 242.614 193.676 241.868C202.566 238.409 211.461 234.946 220.35 231.486C229.272 228.011 238.195 224.535 247.124 221.06C247.151 221.049 247.179 221.038 247.207 221.027C247.535 220.893 247.391 220.358 247.057 220.487C246.901 220.548 246.751 220.609 246.594 220.665C245.642 221.038 244.678 221.411 243.726 221.785C234.675 225.31 225.631 228.83 216.579 232.355C212.074 234.11 207.562 235.869 203.057 237.625C200.773 238.516 198.483 239.401 196.2 240.292C194.128 241.1 192.023 241.852 189.984 242.749C188.268 243.5 186.648 244.498 185.578 246.079C184.531 247.622 184.102 249.477 183.885 251.304C183.646 253.403 183.64 255.537 183.557 257.647C183.467 260.098 183.373 262.543 183.284 264.994C182.922 274.652 182.56 284.31 182.197 293.963L181.178 321.12Z" fill="#4292BF"/>
<path d="M179.507 321.042C179.691 321.053 179.875 321.064 180.064 321.07C180.098 320.157 180.131 319.248 180.165 318.335C180.521 308.783 180.883 299.226 181.24 289.673C181.596 280.149 181.958 270.631 182.315 261.112C182.403 258.694 182.493 256.283 182.588 253.866C182.66 251.905 182.704 249.917 183.189 248.001C183.685 246.046 184.704 244.347 186.391 243.199C188.107 242.036 190.134 241.384 192.056 240.637C200.945 237.173 209.834 233.715 218.724 230.25C227.674 226.764 236.63 223.277 245.58 219.79C245.619 219.774 245.647 219.757 245.676 219.729C245.876 219.545 245.726 219.139 245.43 219.255C245.397 219.267 245.369 219.279 245.335 219.294C244.261 219.706 243.175 220.129 242.099 220.553C233.049 224.078 224.004 227.599 214.952 231.124C210.447 232.879 205.935 234.633 201.429 236.389C199.147 237.279 196.857 238.17 194.573 239.061C192.501 239.869 190.396 240.621 188.358 241.512C186.642 242.269 185.021 243.266 183.952 244.843C182.904 246.386 182.476 248.246 182.265 250.073C182.019 252.173 182.014 254.306 181.93 256.416C181.841 258.867 181.746 261.313 181.657 263.763C181.295 273.416 180.933 283.073 180.571 292.731L179.507 321.042Z" fill="#4292BF"/>
<path d="M243.76 212.732C244.157 215.208 244.632 217.903 246.445 219.779C248.139 221.532 250.66 221.913 252.987 221.98C253.345 221.99 253.346 222.546 252.987 222.537C251.085 222.482 249.093 222.24 247.424 221.254C245.707 220.24 244.641 218.491 244.036 216.633C243.638 215.412 243.426 214.143 243.223 212.879C243.167 212.529 243.703 212.377 243.76 212.732Z" fill="#4292BF"/>
<path d="M236.713 128.319L240.402 154.464L232.563 163.155L226.147 137.843C226.147 137.843 229.132 130.877 236.713 128.319Z" fill="#F1435E"/>
<path d="M232.239 163.667L223.661 140.937C223.661 140.937 224.457 137.738 227.366 135.429L233.599 163.155L232.012 163.843" fill="#BB2831"/>
<path d="M224.457 205.359C237.53 211.754 275.625 207.943 276.67 205.892L268.519 128.003L257.685 125.044L247.267 124.986L236.713 128.319L224.457 205.359Z" fill="#F1435E"/>
<path d="M268.518 128.003C276.845 129.991 282.487 172.342 278.828 179.144C274.49 187.206 230.911 202.99 230.911 202.99L226.908 195.786L264.99 172.114L260.899 141.275L268.518 128.003Z" fill="#F9ACA4"/>
<path d="M229.314 194.678C226.707 194.881 220.276 189.365 219.521 189.794C218.765 190.222 218.843 192.499 220.008 193.499C220.008 193.499 211.878 194.805 212.221 196.001C212.565 197.198 215.807 196.699 217.328 196.217C217.328 196.217 212.263 198.602 212.532 199.775C212.799 200.947 217.843 198.569 217.843 198.569C217.843 198.569 213.586 200.995 214.166 202.146C214.747 203.297 219.144 200.172 219.144 200.172C219.144 200.172 216.792 202.505 217.383 203.381C217.976 204.256 221.839 200.421 221.839 200.421C221.839 200.421 226.757 207.437 231.539 202.432L229.314 194.678Z" fill="#F9ACA4"/>
<path d="M268.519 128.003C278.675 130.601 282.182 167.348 282.182 167.348C282.182 167.348 273.643 168.95 259.691 168.95L258.93 141.351L268.519 128.003Z" fill="#F1435E"/>
<path d="M257.029 146.855C257.126 146.756 257.328 146.739 257.423 146.855C258.223 147.84 259.025 148.824 259.825 149.81C259.759 149.454 259.693 149.098 259.627 148.743C259.348 147.239 259.069 145.736 258.79 144.232C258.725 143.882 259.262 143.732 259.327 144.084C259.737 146.295 260.148 148.507 260.559 150.717C260.615 150.798 260.636 150.893 260.608 150.981C261.171 154.013 261.734 157.045 262.296 160.076C262.576 161.579 262.854 163.082 263.134 164.586C263.199 164.937 262.663 165.087 262.597 164.734C261.743 160.138 260.891 155.543 260.037 150.947C259.034 149.715 258.031 148.482 257.029 147.249C256.933 147.131 256.917 146.97 257.029 146.855Z" fill="#F687A0"/>
<path d="M232.249 153.226C233.427 148.764 234.308 144.224 234.868 139.643C235.029 138.33 235.162 137.014 235.272 135.696C235.302 135.342 235.859 135.339 235.829 135.696C235.442 140.345 234.742 144.967 233.727 149.52C233.438 150.811 233.124 152.095 232.787 153.375C232.695 153.721 232.157 153.574 232.249 153.226Z" fill="#F687A0"/>
<path d="M232.659 87.8798C232.961 85.5698 234.007 83.338 235.7 81.7365C237.73 79.8159 240.554 78.9017 243.344 78.7242C246.132 78.5459 248.918 79.0456 251.651 79.6313C254.055 80.1466 256.466 80.7378 258.686 81.7967C260.907 82.8555 262.944 84.4187 264.209 86.5285C265.002 87.8532 265.421 89.4313 265.387 90.9828C265.471 90.9617 265.552 90.9312 265.638 90.921C266.064 90.8694 266.518 90.9625 266.851 91.2331C267.184 91.5044 267.371 91.9666 267.257 92.381C267.134 92.8338 266.702 93.1364 266.262 93.2991C266.561 93.1888 266.923 93.3304 267.095 93.5986C267.267 93.8684 267.252 94.2344 267.088 94.5073C266.939 94.756 266.677 94.9218 266.395 94.9906C266.983 95.8594 267.303 96.969 267.413 98.0279C267.69 100.714 267.024 103.489 265.559 105.756C264.093 108.024 261.837 109.77 259.274 110.621C252.142 112.988 244.091 110.57 236.796 108.768C233.176 105.228 231.874 99.4206 233.716 94.7036C232.78 92.5695 232.358 90.1906 232.659 87.8798Z" fill="#100F0D"/>
<path d="M260.899 108.124C260.899 108.124 257.338 116.184 257.578 126.753C255.53 131.616 249.04 131.106 247.308 126.859C247.265 122.838 246.5 120.976 245.176 119.635C245.067 119.522 244.96 119.423 244.846 119.316C244.766 119.241 244.689 119.173 244.603 119.105C244.446 118.969 244.271 118.847 244.101 118.712C242.929 117.835 241.474 117.032 239.79 115.628C237.816 113.996 236.313 111.71 235.639 108.054C235.628 108.001 235.617 107.948 235.607 107.895C235.594 107.802 235.581 107.716 235.568 107.623C235.559 107.584 235.556 107.544 235.546 107.505C235.011 103.999 235.174 99.2876 236.329 92.7533C237.529 85.9749 253.815 82.9087 258.55 91.3738C260.5 94.8678 260.899 108.124 260.899 108.124Z" fill="#F9ACA4"/>
<path d="M239.742 92.711C244.283 93.6932 249.111 93.3046 253.435 91.6076C253.459 92.374 253.908 93.1145 254.577 93.4891C255.247 93.8629 256.113 93.8582 256.778 93.4766C255.965 95.6983 255.995 98.2179 256.861 100.419C257.728 102.621 259.424 104.486 261.534 105.556C262.992 101.563 262.72 96.9706 260.801 93.1771C258.882 89.3836 255.344 86.4441 251.263 85.2523C247.182 84.0613 242.617 84.6361 238.96 86.8014C237.869 87.4474 235.688 88.9316 235.709 90.4073C235.718 91.0899 236.596 91.5271 237.113 91.8102C237.929 92.2559 238.838 92.5155 239.742 92.711Z" fill="#100F0D"/>
<path d="M248.726 104.57C248.732 105.147 248.269 105.62 247.691 105.626C247.114 105.631 246.64 105.168 246.635 104.59C246.629 104.013 247.092 103.54 247.67 103.535C248.248 103.529 248.721 103.992 248.726 104.57Z" fill="#100F0D"/>
<path d="M247.677 104.295C247.68 104.506 247.51 104.679 247.299 104.681C247.087 104.683 246.913 104.514 246.913 104.302C246.91 104.091 247.079 103.917 247.291 103.916C247.502 103.913 247.676 104.083 247.677 104.295Z" fill="white"/>
<path d="M240.638 104.651C240.644 105.229 240.18 105.702 239.603 105.707C239.026 105.713 238.552 105.25 238.547 104.672C238.541 104.095 239.004 103.622 239.582 103.616C240.159 103.611 240.632 104.074 240.638 104.651Z" fill="#100F0D"/>
<path d="M239.589 104.376C239.592 104.587 239.422 104.76 239.211 104.762C238.999 104.765 238.826 104.595 238.824 104.383C238.822 104.172 238.992 103.998 239.203 103.997C239.415 103.995 239.587 104.164 239.589 104.376Z" fill="white"/>
<path d="M245.926 109.376C245.608 108.873 244.749 109.388 243.729 109.459C242.71 109.529 241.788 109.136 241.541 109.678C241.23 110.364 242.222 111.947 243.892 111.831C245.563 111.716 246.329 110.012 245.926 109.376Z" fill="#A1312E"/>
<path d="M245.859 110.478C245.538 110.459 245.195 110.457 244.835 110.482C243.649 110.564 242.65 110.878 242.2 111.261C242.616 111.621 243.19 111.879 243.893 111.831C244.896 111.761 245.566 111.119 245.859 110.478Z" fill="#DA554F"/>
<path d="M243.769 110.032C244.678 109.968 245.437 109.699 245.686 109.189C245.272 109.054 244.553 109.402 243.729 109.459C242.906 109.515 242.146 109.27 241.754 109.46C242.07 109.932 242.859 110.095 243.769 110.032Z" fill="white"/>
<path d="M241.966 107.474C241.907 107.474 241.852 107.436 241.834 107.376C241.566 106.488 241.866 106.181 242.165 106.081C242.468 105.981 242.834 106.056 243.251 106.307C243.315 106.346 243.335 106.43 243.297 106.495C243.257 106.559 243.172 106.579 243.108 106.541C242.765 106.333 242.476 106.265 242.252 106.341C241.984 106.43 241.931 106.752 242.096 107.298C242.117 107.37 242.076 107.446 242.004 107.468C241.992 107.472 241.978 107.474 241.966 107.474Z" fill="#95332F"/>
<path d="M237.704 100.54C238.963 99.8679 240.485 99.8108 241.762 100.48C242.074 100.644 242.246 101.06 242.067 101.385C241.894 101.699 241.497 101.866 241.163 101.69C241.034 101.623 240.903 101.566 240.769 101.511C240.755 101.506 240.758 101.507 240.75 101.504C240.726 101.497 240.703 101.489 240.678 101.482C240.626 101.466 240.574 101.452 240.522 101.44C240.382 101.405 240.239 101.38 240.097 101.362C240.061 101.358 239.829 101.317 240.008 101.351C239.948 101.34 239.878 101.347 239.818 101.347C239.682 101.347 239.548 101.355 239.413 101.371C239.341 101.379 239.27 101.391 239.199 101.402C239.191 101.403 239.189 101.403 239.183 101.404C239.173 101.407 239.159 101.411 239.138 101.415C239.007 101.448 238.878 101.487 238.751 101.534C238.683 101.559 238.616 101.587 238.551 101.616C238.524 101.627 238.498 101.64 238.472 101.652C238.468 101.655 238.47 101.653 238.464 101.656C238.462 101.657 238.46 101.657 238.458 101.658C238.456 101.659 238.454 101.66 238.452 101.661C238.454 101.659 238.454 101.66 238.456 101.659C238.147 101.821 237.73 101.808 237.526 101.478C237.35 101.195 237.371 100.718 237.704 100.54Z" fill="#100F0D"/>
<path d="M245.582 99.9962C246.841 99.3244 248.364 99.2673 249.641 99.9367C249.954 100.1 250.125 100.516 249.946 100.841C249.773 101.155 249.377 101.322 249.041 101.146C248.913 101.078 248.782 101.023 248.648 100.967C248.635 100.963 248.638 100.963 248.629 100.96C248.606 100.953 248.581 100.945 248.557 100.938C248.506 100.923 248.453 100.909 248.401 100.895C248.261 100.861 248.119 100.836 247.975 100.818C247.939 100.814 247.708 100.773 247.887 100.807C247.827 100.796 247.758 100.803 247.697 100.803C247.562 100.804 247.426 100.812 247.292 100.827C247.22 100.835 247.149 100.848 247.078 100.858C247.071 100.859 247.067 100.859 247.062 100.86C247.052 100.863 247.039 100.867 247.017 100.872C246.885 100.904 246.756 100.943 246.63 100.99C246.561 101.015 246.495 101.042 246.429 101.071C246.403 101.083 246.377 101.096 246.352 101.108C246.346 101.111 246.349 101.109 246.343 101.112C246.341 101.114 246.339 101.114 246.337 101.114C246.335 101.115 246.333 101.117 246.331 101.118C246.334 101.116 246.332 101.117 246.335 101.115C246.026 101.277 245.61 101.265 245.405 100.935C245.229 100.651 245.251 100.174 245.582 99.9962Z" fill="#100F0D"/>
<path d="M242.523 105.339C244.88 105.279 249.052 108.08 252.299 108.226C252.299 108.226 251.849 112.307 252.679 115.553C252.679 115.553 247.43 118.019 242.677 118.019C237.418 116.265 235.887 112.121 235.253 107.474C237.012 107.235 239.739 105.41 242.523 105.339Z" fill="#4292BF"/>
<path d="M251.497 108.076C254.15 107.136 256.804 106.197 259.457 105.257C260.135 105.017 260.426 106.093 259.753 106.332C257.101 107.271 254.446 108.21 251.794 109.15C251.117 109.389 250.825 108.313 251.497 108.076Z" fill="#4292BF"/>
<path d="M251.996 114.75C254.692 112.498 257.387 110.245 260.081 107.993C260.629 107.536 261.42 108.32 260.87 108.78L252.784 115.538C252.238 115.994 251.446 115.211 251.996 114.75Z" fill="#4292BF"/>
<path d="M264.477 108.392C263.095 110.075 260.892 110.549 259.556 109.452C258.22 108.354 258.259 106.101 259.641 104.418C261.023 102.735 263.227 102.262 264.562 103.359C265.898 104.456 265.86 106.71 264.477 108.392Z" fill="#F9ACA4"/>
<path d="M263.658 104.185C263.059 103.876 262.266 103.898 261.537 104.247C261.173 104.42 260.91 104.63 260.731 104.885C260.497 105.225 260.434 105.65 260.569 105.993C260.691 106.301 260.94 106.499 261.159 106.674C261.318 106.801 261.469 106.921 261.554 107.065C261.685 107.286 261.656 107.597 261.485 107.79C261.315 107.981 261.009 108.046 260.774 107.94C260.635 107.879 260.474 107.94 260.412 108.077C260.351 108.215 260.412 108.378 260.549 108.439C260.699 108.507 260.863 108.539 261.026 108.537C261.351 108.534 261.674 108.399 261.894 108.153C262.223 107.784 262.277 107.209 262.024 106.785C261.887 106.556 261.681 106.392 261.5 106.247C261.318 106.102 261.147 105.965 261.079 105.792C261.011 105.62 261.05 105.387 261.182 105.197C261.234 105.121 261.307 105.053 261.387 104.986C261.658 104.981 261.999 105.061 262.173 105.247C262.368 105.457 262.462 105.762 262.419 106.045C262.395 106.194 262.498 106.333 262.648 106.357C262.662 106.359 262.678 106.361 262.692 106.36C262.823 106.359 262.939 106.263 262.959 106.129C263.03 105.677 262.884 105.208 262.573 104.873C262.456 104.749 262.312 104.665 262.161 104.598C262.612 104.472 263.058 104.491 263.406 104.671C263.836 104.892 264.165 105.473 263.95 105.95C263.889 106.088 263.95 106.25 264.087 106.312C264.225 106.373 264.386 106.313 264.449 106.175C264.762 105.48 264.399 104.568 263.658 104.185Z" fill="#95332F"/>
</svg>
